<?xml version="1.0" encoding="utf-8"?>
<!-- Generator: Adobe Illustrator 17.1.0, SVG Export Plug-In . SVG Version: 6.00 Build 0)  -->
<!DOCTYPE svg PUBLIC "-//W3C//DTD SVG 1.1//EN" "http://www.w3.org/Graphics/SVG/1.1/DTD/svg11.dtd">
<svg version="1.1" id="iMac_1_" xmlns="http://www.w3.org/2000/svg" xmlns:xlink="http://www.w3.org/1999/xlink" x="0px" y="0px"
	 viewBox="0 0 595.3 436.4" enable-background="new 0 0 595.3 436.4" xml:space="preserve">
<g id="Shadow_xA0_Image_1_">
	
		<image overflow="visible" enable-background="new    " width="360" height="16" id="Shadow_xA0_Image" xlink:href="D356BC4C.png"  transform="matrix(0.8302 0 0 0.6765 150.7083 426.2704)">
	</image>
</g>
<g id="Device_1_">
	<g id="Stand">
		<g>
			<polygon fill="#E8EBF0" points="374.3,422.2 356.7,361.2 298.5,361.2 296.8,361.2 238.6,361.2 221,422.2 199.5,425 199.5,430.6 
				395.7,430.6 395.7,425 			"/>
		</g>
	</g>
	<g id="Shadow_1_" opacity="0.102">
		<g>
			<polygon fill="#474E5D" points="356.7,361.2 298.5,361.2 296.8,361.2 238.6,361.2 234.8,374.4 360.5,374.4 			"/>
		</g>
	</g>
	<g id="iMac_base">
		<g>
			<path fill="#474E5D" d="M582.1,0H13.2C5.9,0,0,5.9,0,13.2v6.2v322.4v6.2c0,7.3,5.9,13.2,13.2,13.2h568.9
				c7.3,0,13.2-5.9,13.2-13.2v-6.2V19.4v-6.2C595.3,5.9,589.4,0,582.1,0z"/>
		</g>
	</g>
	<g id="Apple">
		<g>
			<circle fill="#E8EBF0" cx="297.8" cy="349.5" r="5.3"/>
		</g>
	</g>
	<g id="Camera">
		<g>
			<circle fill="#A5ADBD" cx="298.5" cy="12.8" r="2.8"/>
		</g>
	</g>
</g>
</svg>
