<?xml version="1.0" encoding="utf-8"?>
<!-- Generator: Adobe Illustrator 17.1.0, SVG Export Plug-In . SVG Version: 6.00 Build 0)  -->
<!DOCTYPE svg PUBLIC "-//W3C//DTD SVG 1.1//EN" "http://www.w3.org/Graphics/SVG/1.1/DTD/svg11.dtd">
<svg version="1.1" id="Layer_1" xmlns="http://www.w3.org/2000/svg" xmlns:xlink="http://www.w3.org/1999/xlink" x="0px" y="0px"
	 viewBox="122.6 270.9 350 300" enable-background="new 122.6 270.9 350 300" xml:space="preserve">
<g>
	<g>
		
			<rect x="159" y="310" transform="matrix(-0.9772 -0.2121 0.2121 -0.9772 515.3291 896.4164)" fill="#ECF0F1" width="293.6" height="221.2"/>
		
			<rect x="219.3" y="297.9" transform="matrix(0.2121 -0.9772 0.9772 0.2121 -170.099 630.1763)" opacity="0.5" fill="#94B9FF" enable-background="new    " width="172.9" height="245.3"/>
		<polyline fill="#8CB269" points="279.9,454.5 358.3,404.1 410.1,484.6 		"/>
		<polyline fill="#A3D080" points="177.9,431.6 282.7,357.3 349.3,471.4 		"/>
		
			<rect x="169.9" y="457.4" transform="matrix(-0.9772 -0.2121 0.2121 -0.9772 476.2668 1014.0524)" fill="#A3D080" width="245.3" height="48.3"/>
	</g>
	<g>
		<polygon opacity="0.5" fill="#A8ACAF" enable-background="new    " points="317.6,311 179.6,311 138.8,498.6 293.9,532.2 
			424.4,532.2 424.4,333.2 		"/>
		<rect x="122.8" y="303" fill="#ECF0F1" width="293.6" height="221.2"/>
		<rect x="146.9" y="327.1" opacity="0.5" fill="#94B9FF" enable-background="new    " width="245.3" height="172.9"/>
		<polyline fill="#8CB269" points="251.5,451.2 317.4,385.2 385.1,453 		"/>
		<polyline fill="#A3D080" points="146.9,450.4 233.6,355.6 322.9,453 		"/>
		<polygon fill="#A3D080" points="392.2,451.8 146.9,449.6 146.9,500.1 392.2,500.1 		"/>
	</g>
</g>
</svg>
